<?xml version="1.0" standalone="no"?><!DOCTYPE svg PUBLIC "-//W3C//DTD SVG 1.1//EN" "http://www.w3.org/Graphics/SVG/1.1/DTD/svg11.dtd"><svg t="1505980771151" class="icon" style="" viewBox="0 0 1024 1024" version="1.1" xmlns="http://www.w3.org/2000/svg" p-id="6740" xmlns:xlink="http://www.w3.org/1999/xlink" width="16" height="16"><defs><style type="text/css"></style></defs><path d="M918.557 741.83c-19.116 17.839-51.983-1.612-83.578-45.341-13.706 37.036-31.593 71.143-52.323 101.796 44.66 15.967 73.353 40.828 73.353 68.931 0 48.493-85.788 87.75-191.716 87.75-62.88 0-118.395-13.756-153.482-35.126-34.737 21.37-90.602 35.127-153.44 35.127-105.927 0-191.758-39.258-191.758-87.75 0-27.763 28.742-52.965 73.402-68.932-21.037-30.614-38.575-64.76-52.323-101.796-31.592 43.38-64.42 63.18-83.578 45.34-26.182-24.562-16.268-111.38 22.65-193.67 8.946-18.818 18.479-35.723 28.355-50.41 5.452-239.296 163.063-431.37 356.392-431.37h0.64c193.339 0 350.951 191.76 356.353 431.37 9.884 14.687 19.498 31.584 28.401 50.41 38.619 82.29 48.834 169.108 22.652 193.67z m0 0" fill="#1296db" p-id="6741"></path></svg>