<?xml version="1.0" standalone="no"?><!DOCTYPE svg PUBLIC "-//W3C//DTD SVG 1.1//EN" "http://www.w3.org/Graphics/SVG/1.1/DTD/svg11.dtd"><svg t="1505978886137" class="icon" style="" viewBox="0 0 1024 1024" version="1.1" xmlns="http://www.w3.org/2000/svg" p-id="2663" xmlns:xlink="http://www.w3.org/1999/xlink" width="16" height="16"><defs><style type="text/css"></style></defs><path d="M821.952 638.736c-62.368 0-120.16 35.6-150.336 91.632L347.968 604.64a176.672 176.672 0 0 0 26.24-92.64c0-32.976-9.2-64.944-26.736-93.328l319.728-134.56c28.688 61.152 88.112 99.968 154.736 99.968 94.944 0 172.176-79.28 172.176-176.736 0-97.44-77.232-176.72-172.176-176.72-94.928 0-172.16 79.28-172.16 176.72 0 5.584 0.496 10.896 1.136 16.016L304.16 370.736c-30.208-23.232-65.36-35.456-102.16-35.456-94.928 0-172.16 79.28-172.16 176.72 0 97.456 77.232 176.736 172.16 176.736 36.944 0 72.224-12.32 102.496-35.712l347.312 136.064a178.928 178.928 0 0 0-2.032 26.368c0 97.44 77.232 176.72 172.16 176.72 94.944 0 172.176-79.28 172.176-176.72s-77.216-176.72-172.16-176.72z m0 291.376c-61.264 0-111.104-51.44-111.104-114.656 0-63.232 49.84-114.688 111.104-114.688 61.312 0 111.184 51.456 111.184 114.688 0 63.216-49.872 114.656-111.184 114.656zM202.032 626.704c-61.28 0-111.136-51.456-111.136-114.704 0-63.248 49.856-114.688 111.136-114.688 61.296 0 111.168 51.456 111.168 114.688 0 63.248-49.872 114.704-111.168 114.704zM821.952 92.64c61.312 0 111.184 51.456 111.184 114.704 0 63.248-49.872 114.704-111.184 114.704-61.264 0-111.104-51.456-111.104-114.704 0-63.248 49.84-114.704 111.104-114.704z" p-id="2664" fill="#ffffff"></path></svg>