<?xml version="1.0" standalone="no"?><!DOCTYPE svg PUBLIC "-//W3C//DTD SVG 1.1//EN" "http://www.w3.org/Graphics/SVG/1.1/DTD/svg11.dtd"><svg t="1505872174113" class="icon" style="" viewBox="0 0 1024 1024" version="1.1" xmlns="http://www.w3.org/2000/svg" p-id="3941" xmlns:xlink="http://www.w3.org/1999/xlink" width="16" height="16"><defs><style type="text/css"></style></defs><path d="M248.848 488.434c-2.442 0-4.368 0.358-5.881 0.961a22.424 22.424 0 0 1 6.503-0.961h-0.622z m674.933 268.915c0.068-1.249 0.228-2.474 0.492-3.654-0.29 0.54-0.443 1.698-0.492 3.654z m45.027-496.783a0.687 0.687 0 0 0 0.013-0.159v-0.586c-0.001 0.253-0.001 0.506-0.013 0.745z m-45.052-0.074c0 0.05 0 0.1 0.013 0.155-0.013-0.272-0.013-0.549-0.013-0.826v0.671z m27.172 675.678c-6.337-47.193-20.2-92.76-41.194-135.438a440.612 440.612 0 0 0-13.063-24.587c-0.013-0.025-0.024-0.05-0.056-0.074-19.985-33.847-44.504-65.276-73.085-93.328l-0.012-0.013a462.204 462.204 0 0 0-19.203-17.818c-46.99-41.175-101.24-71.712-159.09-90.282a274.876 274.876 0 0 0 30.327-19.498 277.12 277.12 0 0 0 31.548-27.154c52.152-52.16 80.885-121.516 80.885-195.283s-28.734-143.123-80.885-195.28c-51.218-51.21-119.01-79.827-191.264-80.86a320.771 320.771 0 0 0-3.44-0.025c-1.15 0-2.294 0.012-3.437 0.024-72.255 1.034-140.054 29.651-191.265 80.863-52.151 52.157-80.887 121.513-80.887 195.28s28.736 143.123 80.887 195.284a277.574 277.574 0 0 0 31.54 27.153 275.062 275.062 0 0 0 30.333 19.498c-57.85 18.57-112.1 49.107-159.09 90.282a460.285 460.285 0 0 0-19.203 17.819c-28.604 28.076-53.154 59.53-73.152 93.414a445.106 445.106 0 0 0-13.067 24.587C94.06 843.411 80.204 888.98 73.86 936.173c-2.024 15.118 8.582 29.018 23.695 31.047 1.243 0.166 2.492 0.252 3.718 0.252 1.12 0 2.214-0.061 3.31-0.203 10.927-2.38 19.75-11.29 21.46-22.993 12.73-87.353 54.361-166.731 114.205-227.178 71.023-71.76 167.685-116.862 272.15-117.041h0.59c104.237 0.357 200.679 45.415 271.559 117.041 59.838 60.447 101.475 139.826 114.204 227.178 1.712 11.678 10.498 20.576 21.395 22.981 0.023 0 0.037 0.012 0.061 0.012 1.096 0.143 2.198 0.203 3.317 0.203 1.224 0 2.467-0.086 3.716-0.252 15.111-2.031 25.718-15.931 23.688-31.05zM511.806 553.637c-0.56 0-1.114 0-1.667-0.012-103.074-0.757-194.973-72.37-220.09-168.432a132.204 132.204 0 0 1-0.806-3.162 204.852 204.852 0 0 1-6.025-49.334c0-16.952 2.092-33.643 6.025-49.8 0.253-1.085 0.529-2.154 0.806-3.226 25.253-98.466 118.008-176.73 221.757-176.73h1.181c103.745 0 196.506 78.265 221.759 176.73 0.277 1.072 0.553 2.141 0.805 3.225 3.932 16.158 6.024 32.85 6.024 49.8 0 16.954-2.092 33.454-6.024 49.335-0.252 1.058-0.529 2.116-0.805 3.162-25.117 96.061-117.017 167.675-220.097 168.432-0.941 0.012-1.89 0.012-2.843 0.012z m0 0" fill="#707070" p-id="3942"></path></svg>