<?xml version="1.0" standalone="no"?><!DOCTYPE svg PUBLIC "-//W3C//DTD SVG 1.1//EN" "http://www.w3.org/Graphics/SVG/1.1/DTD/svg11.dtd"><svg t="1505872202237" class="icon" style="" viewBox="0 0 1024 1024" version="1.1" xmlns="http://www.w3.org/2000/svg" p-id="4113" xmlns:xlink="http://www.w3.org/1999/xlink" width="16" height="16"><defs><style type="text/css"></style></defs><path d="M807.318 647.618c-47.806-44.616-105.862-76.926-169.69-95.236 20.847-11.619 40.213-26.194 57.553-43.535C744.288 459.74 771.333 394.448 771.333 325s-27.045-134.74-76.152-183.848S580.782 65 511.333 65c-69.449 0-134.74 27.045-183.848 76.152S251.333 255.551 251.333 325s27.045 134.74 76.152 183.848c17.341 17.341 36.706 31.915 57.553 43.535-63.828 18.31-121.885 50.62-169.69 95.236C135.701 721.953 91.836 824.146 91.836 935.37c0 14.359 11.641 26 26 26H904.83c14.359 0 26-11.641 26-26 0-111.224-43.864-213.417-123.512-287.752z" p-id="4114" fill="#1afa29"></path></svg>