<?xml version="1.0" standalone="no"?><!DOCTYPE svg PUBLIC "-//W3C//DTD SVG 1.1//EN" "http://www.w3.org/Graphics/SVG/1.1/DTD/svg11.dtd"><svg t="1505872769435" class="icon" style="" viewBox="0 0 1024 1024" version="1.1" xmlns="http://www.w3.org/2000/svg" p-id="13774" xmlns:xlink="http://www.w3.org/1999/xlink" width="16" height="16"><defs><style type="text/css"></style></defs><path d="M960 1024 64 1024C35.712 1024 12.8 1001.0624 12.8 972.8L12.8 358.4C12.8 330.112 35.712 307.2 64 307.2L320 307.2 320 51.2C320 22.912 342.912 0 371.2 0L652.8 0C681.088 0 704 22.912 704 51.2L704 512 960 512C988.288 512 1011.2 534.912 1011.2 563.2L1011.2 972.8C1011.2 1001.0624 988.288 1024 960 1024ZM320 409.6C320 395.4688 308.5312 384 294.4 384L115.2 384C101.0688 384 89.6 395.4688 89.6 409.6L89.6 921.6C89.6 935.7312 101.0688 947.2 115.2 947.2L294.4 947.2C308.5312 947.2 320 935.7312 320 921.6L320 409.6ZM627.2 563.2 627.2 102.4C627.2 88.2688 615.7312 76.8 601.6 76.8L422.4 76.8C408.2688 76.8 396.8 88.2688 396.8 102.4L396.8 921.6C396.8 935.7312 408.2688 947.2 422.4 947.2L601.6 947.2C615.7312 947.2 627.2 935.7312 627.2 921.6L627.2 563.2ZM934.4 614.4C934.4 600.2688 922.9312 588.8 908.8 588.8L729.6 588.8C715.4688 588.8 704 600.2688 704 614.4L704 921.6C704 935.7312 715.4688 947.2 729.6 947.2L908.8 947.2C922.9312 947.2 934.4 935.7312 934.4 921.6L934.4 614.4Z" p-id="13775" fill="#707070"></path></svg>