<?xml version="1.0" standalone="no"?><!DOCTYPE svg PUBLIC "-//W3C//DTD SVG 1.1//EN" "http://www.w3.org/Graphics/SVG/1.1/DTD/svg11.dtd"><svg t="1505872709351" class="icon" style="" viewBox="0 0 1024 1024" version="1.1" xmlns="http://www.w3.org/2000/svg" p-id="12495" xmlns:xlink="http://www.w3.org/1999/xlink" width="16" height="16"><defs><style type="text/css"></style></defs><path d="M907.636364 481.745455h-148.945455c-27.927273 0-51.2 20.945455-51.2 51.2V907.636364c0 27.927273 23.272727 51.2 51.2 51.2H907.636364c27.927273 0 51.2-20.945455 51.2-51.2V532.945455c0-27.927273-23.272727-51.2-51.2-51.2z m13.963636 416.581818c0 9.309091-6.981818 16.290909-16.290909 16.290909h-141.963636c-9.309091 0-16.290909-6.981818-16.29091-16.290909V537.6c0-9.309091 6.981818-16.290909 16.29091-16.290909h141.963636c9.309091 0 16.290909 6.981818 16.290909 16.290909v360.727273zM591.127273 67.490909H442.181818c-27.927273 0-51.2 20.945455-51.2 51.2V907.636364c0 27.927273 23.272727 51.2 51.2 51.2h148.945455c27.927273 0 51.2-20.945455 51.2-51.2V118.690909c0-30.254545-25.6-51.2-51.2-51.2z m11.636363 830.836364c0 9.309091-6.981818 16.290909-16.290909 16.290909h-141.963636c-9.309091 0-16.290909-6.981818-16.290909-16.290909V125.672727c0-9.309091 6.981818-16.290909 16.290909-16.290909h141.963636c9.309091 0 16.290909 6.981818 16.290909 16.290909v772.654546zM269.963636 281.6H123.345455c-27.927273 0-51.2 20.945455-51.2 51.2V907.636364c0 27.927273 23.272727 51.2 51.2 51.2h148.945454c27.927273 0 51.2-20.945455 51.2-51.2V332.8c-2.327273-27.927273-23.272727-51.2-53.527273-51.2z m13.963637 616.727273c0 9.309091-6.981818 16.290909-16.290909 16.290909H125.672727c-9.309091 0-16.290909-6.981818-16.290909-16.290909v-558.545455c0-9.309091 6.981818-16.290909 16.290909-16.290909h141.963637c9.309091 0 16.290909 6.981818 16.290909 16.290909v558.545455z" p-id="12496" fill="#1afa29"></path><path d="M907.636364 484.072727h-148.945455c-27.927273 0-51.2 20.945455-51.2 51.2v372.363637c0 27.927273 23.272727 51.2 51.2 51.2H907.636364c27.927273 0 51.2-20.945455 51.2-51.2V535.272727c0-30.254545-23.272727-51.2-51.2-51.2zM591.127273 67.490909H442.181818c-27.927273 0-51.2 20.945455-51.2 51.2V907.636364c0 27.927273 23.272727 51.2 51.2 51.2h148.945455c27.927273 0 51.2-20.945455 51.2-51.2V118.690909c0-27.927273-25.6-51.2-51.2-51.2zM269.963636 283.927273H123.345455c-27.927273 0-51.2 20.945455-51.2 51.2V907.636364c0 27.927273 23.272727 51.2 51.2 51.2h148.945454c27.927273 0 51.2-20.945455 51.2-51.2V335.127273c-2.327273-27.927273-23.272727-51.2-53.527273-51.2z" p-id="12497" fill="#1afa29"></path></svg>