<?xml version="1.0" standalone="no"?><!DOCTYPE svg PUBLIC "-//W3C//DTD SVG 1.1//EN" "http://www.w3.org/Graphics/SVG/1.1/DTD/svg11.dtd"><svg t="1505980805135" class="icon" style="" viewBox="0 0 1024 1024" version="1.1" xmlns="http://www.w3.org/2000/svg" p-id="7467" xmlns:xlink="http://www.w3.org/1999/xlink" width="16" height="16"><defs><style type="text/css"></style></defs><path d="M512.68096 643.416064c-28.650496 0-56.43776-3.550208-82.939904-10.159104l0.212992-0.580608c-11.660288-3.09248-20.288512-13.314048-20.288512-25.493504 0-14.68928 12.361728-26.563584 27.63264-26.563584 4.009984 0 7.834624 0.857088 11.293696 2.326528l0 0c20.566016 4.743168 41.986048 7.313408 64.088064 7.313408 151.240704 0 273.8688-117.854208 273.8688-263.2192 0-145.39776-122.628096-263.250944-273.8688-263.250944-151.245824 0-273.874944 117.853184-273.874944 263.250944 0 47.740928 13.28128 92.483584 36.417536 131.075072l-0.275456 0.120832c2.509824 4.00896 4.0704 8.660992 4.0704 13.679616 0 14.690304-12.394496 26.563584-27.635712 26.563584-11.506688 0-21.359616-6.731776-25.5232-16.370688-26.90048-45.814784-42.324992-98.697216-42.324992-155.068416 0-174.746624 147.355648-316.378112 329.145344-316.378112 181.783552 0 329.1392 141.631488 329.1392 316.378112C841.819136 501.753856 694.464512 643.416064 512.68096 643.416064z" fill="#71c5fc" p-id="7468"></path><path d="M510.168064 228.005888c-61.056 0-110.541824 47.588352-110.541824 106.25536 0 16.800768 4.16256 32.622592 11.352064 46.761984-30.72512 27.880448-243.603456 236.381184-192.279552 619.782144 0 0 2.111488 14.99136 28.51328 13.232128 7.473152-0.498688 22.513664-5.984256 21.737472-18.035712-7.788544-111.819776-22.83008-375.529472 179.519488-573.541376 17.627136 11.415552 38.837248 18.056192 61.699072 18.056192 61.056 0 110.542848-47.557632 110.542848-106.25536C620.711936 275.59424 571.224064 228.005888 510.168064 228.005888z" fill="#71c5fc" p-id="7469"></path></svg>