<?xml version="1.0" standalone="no"?><!DOCTYPE svg PUBLIC "-//W3C//DTD SVG 1.1//EN" "http://www.w3.org/Graphics/SVG/1.1/DTD/svg11.dtd"><svg t="1505873118233" class="icon" style="" viewBox="0 0 1024 1024" version="1.1" xmlns="http://www.w3.org/2000/svg" p-id="25982" xmlns:xlink="http://www.w3.org/1999/xlink" width="16" height="16"><defs><style type="text/css"></style></defs><path d="M914.285714 1024H109.714286a73.142857 73.142857 0 0 1-73.142857-73.142857V73.142857a73.142857 73.142857 0 0 1 73.142857-73.142857h804.571428a73.142857 73.142857 0 0 1 73.142857 73.142857v877.714286a73.142857 73.142857 0 0 1-73.142857 73.142857zM290.121143 255.963429h-42.258286v42.660571h42.258286v-42.660571z m0 234.660571h-42.258286v42.660571h42.258286v-42.660571z m0 234.660571h-42.258286v42.660572h42.258286v-42.660572z m486.089143-469.321142h-401.554286v42.660571h401.554286v-42.660571z m0 234.660571h-401.554286v42.660571h401.554286v-42.660571z m0 234.660571h-401.554286v42.660572h401.554286v-42.660572z" p-id="25983" fill="#1afa29"></path></svg>