<?xml version="1.0" standalone="no"?><!DOCTYPE svg PUBLIC "-//W3C//DTD SVG 1.1//EN" "http://www.w3.org/Graphics/SVG/1.1/DTD/svg11.dtd"><svg t="1505873097698" class="icon" style="" viewBox="0 0 1024 1024" version="1.1" xmlns="http://www.w3.org/2000/svg" p-id="25247" xmlns:xlink="http://www.w3.org/1999/xlink" width="16" height="16"><defs><style type="text/css"></style></defs><path d="M375.101604 766.631016h399.743316v-41.982175H375.101604V766.631016zM774.84492 255.543672H375.101604v41.982175h399.743316V255.543672z" p-id="25248" fill="#707070"></path><path d="M922.695187 0h-821.390374C66.623886 0 37.418895 29.204991 37.418895 65.71123v892.57754c0 36.506239 29.204991 65.71123 63.885918 65.71123h819.565062c36.506239 0 63.885918-29.204991 63.885918-65.71123V65.71123c1.825312-36.506239-27.379679-65.71123-62.060606-65.71123z m21.903743 936.385027c0 23.729055-20.078431 41.982175-43.807486 41.982174l-779.4082 1.825312c-23.729055 0-41.982175-18.253119-41.982174-41.982174V85.789661c0-23.729055 18.253119-41.982175 41.982174-41.982174h781.233512c23.729055 0 41.982175 18.253119 41.982174 41.982174v850.595366z" p-id="25249" fill="#707070"></path><path d="M375.101604 532.991087h399.743316v-43.807486H375.101604v43.807486zM291.137255 255.543672h-41.982175v41.982175h41.982175V255.543672zM249.15508 766.631016h41.982175v-41.982175h-41.982175V766.631016zM291.137255 489.183601h-41.982175v43.807486h41.982175v-43.807486z" p-id="25250" fill="#707070"></path></svg>